<svg xmlns="http://www.w3.org/2000/svg" viewBox="0 0 512 512" width="512" height="512">
  <defs>
    <linearGradient id="grad1" x1="0%" y1="0%" x2="100%" y2="100%">
      <stop offset="0%" style="stop-color:#6366f1;stop-opacity:1" />
      <stop offset="100%" style="stop-color:#ec4899;stop-opacity:1" />
    </linearGradient>
  </defs>
  <rect x="0" y="0" width="512" height="512" rx="100" ry="100" fill="url(#grad1)" />
  <path d="M144,144 H368 A48,48 0 0,1 416,192 V320 A48,48 0 0,1 368,368 H192 L128,416 V368 H144 A48,48 0 0,1 96,320 V192 A48,48 0 0,1 144,144 Z" fill="white" />
  <path d="M280,220 L310,240 L280,260 V220 M230,220 L200,240 L230,260 V220" fill="#6366f1" />
  <circle cx="256" cy="240" r="15" fill="#6366f1" />
</svg>
